<svg width="720" height="520" viewBox="0 0 720 520" fill="none" xmlns="http://www.w3.org/2000/svg">
  <defs>
    <linearGradient id="bg" x1="0" y1="0" x2="1" y2="1">
      <stop offset="0" stop-color="#07B8D6"/>
      <stop offset="1" stop-color="#0A86A8"/>
    </linearGradient>
    <linearGradient id="wave" x1="0" y1="0" x2="1" y2="0">
      <stop offset="0" stop-color="#7FE2F0"/>
      <stop offset="1" stop-color="#4BC6DE"/>
    </linearGradient>
  </defs>
  <rect x="20" y="20" width="680" height="480" rx="36" fill="url(#bg)"/>
  <path d="M40 260C120 210 200 210 280 260C360 310 440 310 520 260C600 210 660 210 700 235V370H40V260Z" fill="url(#wave)" opacity="0.45"/>
  <path d="M40 300C120 250 200 250 280 300C360 350 440 350 520 300C600 250 660 250 700 275V420H40V300Z" fill="#0FA6C2" opacity="0.35"/>
  <circle cx="170" cy="180" r="48" fill="#F8FAFC" opacity="0.95"/>
  <path d="M130 240C170 210 220 210 260 240C300 270 350 270 390 240" stroke="#E2F4F8" stroke-width="10" stroke-linecap="round"/>
  <path d="M240 170C255 160 275 160 290 170" stroke="#0B7FA1" stroke-width="8" stroke-linecap="round"/>
  <circle cx="270" cy="160" r="6" fill="#0B7FA1"/>
  <circle cx="290" cy="160" r="6" fill="#0B7FA1"/>
</svg>
